<?xml version="1.0" encoding="utf-8"?><svg viewBox="0 0 62 63" xmlns="http://www.w3.org/2000/svg" xmlns:xlink="http://www.w3.org/1999/xlink"><style>:root>svg{display:none}:root>svg:target{display:block}</style><svg viewBox="0 0 45 31" id="ic-bird" xmlns="http://www.w3.org/2000/svg"><path d="M11.316 5.229.748 2.24l10.568.747 5.918-1.494 5.918 4.482 4.65-2.615 5.073.374L41.752 0l-1.268 3.735h4.227L28.647 13.819l.846 5.603 5.918 7.47-5.073-1.868L32.03 31 16.811 9.71V7.47l-5.495-2.241Z"/></svg><svg fill="none" viewBox="0 0 28 28" id="ic-facebook" xmlns="http://www.w3.org/2000/svg"><g clip-path="url(#ba)"><path d="M24.5 0h-21C1.57 0 0 1.57 0 3.5v21C0 26.43 1.57 28 3.5 28H14v-9.625h-3.5V14H14v-3.5c0-2.9 2.35-5.25 5.25-5.25h3.5v4.375H21c-.966 0-1.75-.091-1.75.875V14h4.375l-1.75 4.375H19.25V28h5.25c1.93 0 3.5-1.57 3.5-3.5v-21C28 1.57 26.43 0 24.5 0Z" fill="#55A630"/></g><defs><clipPath id="ba"><path fill="#fff" d="M0 0h28v28H0z"/></clipPath></defs></svg><svg viewBox="0 0 29 29" id="ic-instagram" xmlns="http://www.w3.org/2000/svg"><g clip-path="url(#ca)"><path d="M21.15 0H7.85C3.521 0 0 3.521 0 7.85v13.3C0 25.48 3.521 29 7.85 29h13.3C25.48 29 29 25.479 29 21.15V7.85C29 3.521 25.479 0 21.15 0ZM14.5 22.43c-4.372 0-7.93-3.558-7.93-7.93s3.558-7.93 7.93-7.93 7.93 3.558 7.93 7.93-3.558 7.93-7.93 7.93Zm8.119-13.99a2.345 2.345 0 0 1-2.343-2.343 2.346 2.346 0 0 1 2.343-2.343 2.346 2.346 0 0 1 2.343 2.343 2.346 2.346 0 0 1-2.343 2.344Z"/><path d="M14.5 8.27a6.236 6.236 0 0 0-6.23 6.23 6.237 6.237 0 0 0 6.23 6.23 6.237 6.237 0 0 0 6.23-6.23 6.236 6.236 0 0 0-6.23-6.23ZM22.619 5.454a.644.644 0 1 0 .002 1.288.644.644 0 0 0-.002-1.288Z"/></g><defs><clipPath id="ca"><path fill="#fff" d="M0 0h29v29H0z"/></clipPath></defs></svg><svg fill="none" viewBox="0 0 62 63" id="ic-logo" xmlns="http://www.w3.org/2000/svg"><path fill="#E5E5E5" d="M0 0h62v63H0z"/><g clip-path="url(#da)" filter="url(#db)"><path fill="#fff" d="M-119-12h1440v8120H-119z"/><path fill="#fff" d="M-119-12h1440v153H-119z"/><g clip-path="url(#dc)"><path d="M61.207 31.427a32.033 32.033 0 0 0-5.158-17.46C52.686 8.8 47.907 4.771 42.315 2.392A29.858 29.858 0 0 0 24.633.604c-5.937 1.213-11.39 4.206-15.67 8.6C4.683 13.6 1.77 19.2.588 25.297A32.214 32.214 0 0 0 2.33 43.454C4.646 49.197 8.568 54.105 13.6 57.56a30.036 30.036 0 0 0 17.002 5.296c4.02 0 7.999-.812 11.712-2.391a30.56 30.56 0 0 0 9.929-6.813 31.491 31.491 0 0 0 6.634-10.196 32.163 32.163 0 0 0 2.329-12.027Z" fill="#B7ECB1"/><path d="M13.033 24.762h1.663L9.762 36.797h-.378L4.355 24.762h1.68l3.51 8.416 3.488-8.416ZM19.566 32v3.365c0 .27.09.404.268.404.319-.06.616-.206.861-.422v.954c-.262.181-.54.337-.83.465-.21.083-.432.126-.656.125-.652 0-1.036-.263-1.153-.789a3.263 3.263 0 0 1-2.065.771 1.78 1.78 0 0 1-.723-.131 1.82 1.82 0 0 1-.614-.413 1.84 1.84 0 0 1-.406-.627 1.88 1.88 0 0 1-.127-.74c-.001-.498.186-.976.52-1.335a3.528 3.528 0 0 1 1.49-.918l1.946-.688v-.419c0-.948-.462-1.426-1.386-1.426-.832 0-1.639.441-2.421 1.322v-1.729c.595-.711 1.444-1.068 2.547-1.07a2.902 2.902 0 0 1 1.99.673c.368.335.617.787.706 1.285.045.448.063.898.053 1.349V32Zm-1.49 3.19v-2.343l-1.018.404a3.416 3.416 0 0 0-1.1.64c-.2.215-.311.501-.311.8 0 .297.111.584.312.8a1.072 1.072 0 0 0 .789.305 1.86 1.86 0 0 0 .732-.167 1.9 1.9 0 0 0 .611-.445M23.595 24.762h-1.52v11.986h1.52V24.762ZM35.28 24.762h1.565v11.983h-1.68V27.42l-3.59 4.632h-.307l-3.631-4.632v9.325h-1.672V24.762h1.582l3.879 4.922 3.855-4.922ZM43.98 32v3.365c0 .27.086.404.265.404.318-.06.615-.206.86-.422v.954c-.262.181-.54.337-.83.465a1.76 1.76 0 0 1-.656.126c-.651 0-1.035-.263-1.153-.79-.583.49-1.31.763-2.064.771a1.77 1.77 0 0 1-.722-.13 1.81 1.81 0 0 1-.613-.414 1.839 1.839 0 0 1-.407-.626 1.88 1.88 0 0 1-.129-.742c0-.497.186-.975.521-1.334a3.528 3.528 0 0 1 1.49-.917l1.948-.689v-.419c0-.948-.465-1.425-1.388-1.425-.832 0-1.64.44-2.422 1.321V29.77c.596-.712 1.445-1.069 2.547-1.071.723-.037 1.433.2 1.996.667.182.162.336.356.453.572.127.22.213.461.253.713.047.448.066.898.057 1.349h-.006Zm-1.484 3.185V32.84l-1.022.404c-.4.142-.772.359-1.096.64a1.172 1.172 0 0 0-.322.796c-.003.298.106.586.304.803a1.077 1.077 0 0 0 .79.306 1.87 1.87 0 0 0 .733-.167c.23-.105.44-.256.613-.444M48.078 28.852v1.81l.083-.137c.737-1.223 1.473-1.835 2.207-1.835.572 0 1.168.296 1.788.89l-.801 1.373c-.53-.513-1.021-.77-1.472-.77a1.543 1.543 0 0 0-.723.199 1.59 1.59 0 0 0-.552.52 2.781 2.781 0 0 0-.54 1.707v4.136h-1.527v-7.893h1.537ZM54.013 25.533a.874.874 0 0 1 .644.266.882.882 0 0 1 .265.651.949.949 0 0 1-.267.644.9.9 0 0 1-.627.274.82.82 0 0 1-.62-.278.9.9 0 0 1-.268-.649.91.91 0 0 1 .268-.64.84.84 0 0 1 .62-.278l-.015.01Zm-.754 3.319h1.523v7.893h-1.523v-7.893Z" fill="#91BD9D"/><path d="M13.361 24.456h1.662L10.09 36.49h-.378L4.68 24.456h1.683l3.51 8.415 3.488-8.415ZM19.894 31.694v3.365c0 .27.09.404.268.404.318-.061.615-.207.86-.422v.954a5.06 5.06 0 0 1-.83.465c-.21.083-.434.126-.659.126-.65 0-1.033-.264-1.152-.79a3.249 3.249 0 0 1-2.062.771 1.779 1.779 0 0 1-.723-.13 1.815 1.815 0 0 1-.615-.414 1.838 1.838 0 0 1-.406-.627 1.879 1.879 0 0 1-.127-.74c0-.498.186-.976.521-1.335a3.528 3.528 0 0 1 1.49-.917l1.945-.689v-.419c0-.948-.462-1.425-1.385-1.425-.83 0-1.638.44-2.425 1.321v-1.728c.596-.712 1.446-1.07 2.55-1.071a2.902 2.902 0 0 1 1.99.673c.181.162.334.356.45.572.128.22.215.46.256.713.046.448.064.899.054 1.349v-.006Zm-1.49 3.19v-2.343l-1.018.404a3.416 3.416 0 0 0-1.1.64 1.17 1.17 0 0 0-.314.8c0 .298.113.584.314.8a1.072 1.072 0 0 0 .79.305c.252-.005.5-.062.731-.167.23-.105.439-.256.612-.444M23.919 24.456h-1.52v11.986h1.52V24.456ZM35.608 24.456h1.561v11.983h-1.677v-9.325l-3.59 4.632h-.31l-3.628-4.632v9.325h-1.671V24.456h1.582l3.878 4.922 3.855-4.922ZM44.304 31.694v3.365c0 .27.09.404.268.404.318-.06.615-.206.861-.422v.954a5.06 5.06 0 0 1-.831.465c-.21.083-.431.126-.655.126-.652 0-1.036-.264-1.153-.79a3.263 3.263 0 0 1-2.065.771 1.78 1.78 0 0 1-.723-.13 1.819 1.819 0 0 1-.614-.414 1.84 1.84 0 0 1-.407-.627 1.879 1.879 0 0 1-.127-.74c0-.498.186-.976.522-1.335a3.528 3.528 0 0 1 1.49-.917l1.945-.689v-.419c0-.948-.462-1.425-1.386-1.425-.83 0-1.637.44-2.422 1.321v-1.728c.596-.712 1.445-1.069 2.547-1.071a2.902 2.902 0 0 1 1.996.667c.366.337.614.789.706 1.285.046.448.064.899.054 1.349h-.006Zm-1.484 3.185v-2.344l-1.018.404a3.418 3.418 0 0 0-1.1.64 1.17 1.17 0 0 0-.321.796 1.17 1.17 0 0 0 .306.803 1.073 1.073 0 0 0 .79.306c.252-.005.5-.062.731-.167.231-.105.439-.256.612-.444M48.406 28.546v1.811l.084-.138c.734-1.223 1.47-1.835 2.207-1.835.572 0 1.168.296 1.787.89l-.8 1.374c-.528-.514-1.02-.771-1.47-.771a1.543 1.543 0 0 0-.723.2 1.593 1.593 0 0 0-.551.519 2.763 2.763 0 0 0-.54 1.707v4.136h-1.528v-7.893h1.534ZM54.337 25.227a.873.873 0 0 1 .644.266.874.874 0 0 1 .268.651.91.91 0 0 1-.268.652.894.894 0 0 1-.644.275.82.82 0 0 1-.616-.278.901.901 0 0 1-.268-.649.91.91 0 0 1 .268-.639.842.842 0 0 1 .616-.278Zm-.75 3.319h1.528v7.893h-1.52l-.008-7.893Z" fill="#fff"/></g></g><defs><clipPath id="da"><path fill="#fff" transform="translate(-119 -12)" d="M0 0h1440v8120H0z"/></clipPath><clipPath id="dc"><path fill="#fff" d="M0 0h226v63H0z"/></clipPath><filter id="db" x="-123" y="-12" width="1448" height="8128" filterUnits="userSpaceOnUse" color-interpolation-filters="sRGB"><feFlood flood-opacity="0" result="BackgroundImageFix"/><feColorMatrix in="SourceAlpha" values="0 0 0 0 0 0 0 0 0 0 0 0 0 0 0 0 0 0 127 0" result="hardAlpha"/><feOffset dy="4"/><feGaussianBlur stdDeviation="2"/><feComposite in2="hardAlpha" operator="out"/><feColorMatrix values="0 0 0 0 0 0 0 0 0 0 0 0 0 0 0 0 0 0 0.25 0"/><feBlend in2="BackgroundImageFix" result="effect1_dropShadow_0_1"/><feBlend in="SourceGraphic" in2="effect1_dropShadow_0_1" result="shape"/></filter></defs></svg><svg viewBox="0 0 29 28" id="ic-phone" xmlns="http://www.w3.org/2000/svg"><path d="m28.446 22.265-3.104-2.07-2.76-1.84a1.222 1.222 0 0 0-1.641.267l-1.708 2.195a1.216 1.216 0 0 1-1.552.322c-1.159-.644-2.529-1.251-5.552-4.278-3.023-3.027-3.634-4.393-4.278-5.552a1.216 1.216 0 0 1 .322-1.552l2.195-1.708c.505-.393.62-1.108.267-1.64L8.852 3.733 6.726.544A1.222 1.222 0 0 0 5.08.174L2.628 1.645a2.996 2.996 0 0 0-1.36 1.76C.598 5.85.462 11.244 9.105 19.887c8.642 8.643 14.035 8.507 16.48 7.837.74-.211 1.37-.698 1.76-1.36l1.471-2.453a1.222 1.222 0 0 0-.37-1.645ZM16.92 4.345a8.216 8.216 0 0 1 8.206 8.207.483.483 0 0 0 .966 0 9.182 9.182 0 0 0-9.172-9.173.483.483 0 0 0 0 .966Z"/><path d="M16.92 7.24a5.316 5.316 0 0 1 5.311 5.311.483.483 0 1 0 .966 0 6.283 6.283 0 0 0-6.276-6.276.483.483 0 1 0 0 .966Z"/><path d="M16.92 10.138a2.417 2.417 0 0 1 2.413 2.414.483.483 0 0 0 .966 0 3.383 3.383 0 0 0-3.38-3.38.483.483 0 0 0 0 .966Z"/></svg><svg viewBox="0 0 41 41" fill="none" id="ic-rf" xmlns="http://www.w3.org/2000/svg"><path d="M0 6.833V34.166h41V6.833H0Z" fill="#F0F0F0"/><path d="M41 6.833H0v27.334h41V6.833Z" fill="#0052B4"/><path d="M41 6.833H0v9.111h41v-9.11Z" fill="#F0F0F0"/><path d="M41 25.055H0v9.111h41v-9.11Z" fill="#D80027"/></svg><svg viewBox="0 0 43 28" fill="none" id="ic-u" xmlns="http://www.w3.org/2000/svg"><g clip-path="url(#ga)"><path d="M.781.407H42.22v27.186H.78V.407Z" fill="#0B55B1"/><path d="M.781 14H42.22v13.593H.78V14Z" fill="#FED953"/></g><defs><clipPath id="ga"><path fill="#fff" d="M0 0h43v28H0z"/></clipPath></defs></svg><svg viewBox="0 0 41 28" fill="none" id="ic-uk" xmlns="http://www.w3.org/2000/svg"><g clip-path="url(#ha)"><path d="M40.293 27.759H.707A.716.716 0 0 1 0 27.035V.965c0-.4.317-.724.707-.724h39.586c.39 0 .707.325.707.725v26.069c0 .4-.317.724-.707.724Z" fill="#41479B"/><path d="M41 .966c0-.4-.317-.725-.707-.725H37.13l-13.096 8.79V.24h-7.069v8.79L3.87.24H.707A.716.716 0 0 0 0 .966v1.872l11.236 7.541H0v7.242h11.236L0 25.16v1.873c0 .4.317.725.707.725H3.87l13.095-8.79v8.79h7.07v-8.79l13.095 8.79h3.163c.39 0 .707-.325.707-.724v-1.873L29.764 17.62H41v-7.242H29.764L41 2.84V.965Z" fill="#F5F5F5"/><path d="M41 11.828H22.62V.24h-4.24v11.587H0v4.344h18.38V27.76h4.24V16.172H41v-4.344Z" fill="#FF4B55"/><path d="M14.33 17.62.02 27.137c.05.35.331.623.686.623h.974L16.926 17.62h-2.597ZM27.738 17.62H25.14l15.224 10.123a.71.71 0 0 0 .635-.709v-.595L27.738 17.62ZM0 1.765l12.955 8.614h2.597L.412.312A.722.722 0 0 0 0 .966v.799ZM26.63 10.38 40.976.84c-.06-.338-.335-.6-.682-.6H39.28L24.034 10.38h2.597Z" fill="#FF4B55"/></g><defs><clipPath id="ha"><path fill="#fff" d="M0 0h41v28H0z"/></clipPath></defs></svg></svg>