<?xml version="1.0" encoding="utf-8"?><svg viewBox="0 0 29 29" xmlns="http://www.w3.org/2000/svg" xmlns:xlink="http://www.w3.org/1999/xlink"><style>:root>svg{display:none}:root>svg:target{display:block}</style><svg fill="none" viewBox="0 0 28 28" id="ic-facebook" xmlns="http://www.w3.org/2000/svg"><g clip-path="url(#aa)"><path d="M24.5 0h-21C1.57 0 0 1.57 0 3.5v21C0 26.43 1.57 28 3.5 28H14v-9.625h-3.5V14H14v-3.5c0-2.9 2.35-5.25 5.25-5.25h3.5v4.375H21c-.966 0-1.75-.091-1.75.875V14h4.375l-1.75 4.375H19.25V28h5.25c1.93 0 3.5-1.57 3.5-3.5v-21C28 1.57 26.43 0 24.5 0Z" fill="#55A630"/></g><defs><clipPath id="aa"><path fill="#fff" d="M0 0h28v28H0z"/></clipPath></defs></svg><svg fill="none" viewBox="0 0 29 29" id="ic-instagram" xmlns="http://www.w3.org/2000/svg"><g clip-path="url(#ba)" fill="#55A630"><path d="M21.15 0H7.85C3.521 0 0 3.521 0 7.85v13.3C0 25.48 3.521 29 7.85 29h13.3C25.48 29 29 25.479 29 21.15V7.85C29 3.521 25.479 0 21.15 0ZM14.5 22.43c-4.372 0-7.93-3.558-7.93-7.93s3.558-7.93 7.93-7.93 7.93 3.558 7.93 7.93-3.558 7.93-7.93 7.93Zm8.119-13.99a2.345 2.345 0 0 1-2.343-2.343 2.346 2.346 0 0 1 2.343-2.343 2.346 2.346 0 0 1 2.343 2.343 2.346 2.346 0 0 1-2.343 2.344Z"/><path d="M14.5 8.27a6.236 6.236 0 0 0-6.23 6.23 6.237 6.237 0 0 0 6.23 6.23 6.237 6.237 0 0 0 6.23-6.23 6.236 6.236 0 0 0-6.23-6.23ZM22.619 5.454a.644.644 0 1 0 .002 1.288.644.644 0 0 0-.002-1.288Z"/></g><defs><clipPath id="ba"><path fill="#fff" d="M0 0h29v29H0z"/></clipPath></defs></svg><svg fill="none" viewBox="0 0 29 28" id="ic-phone" xmlns="http://www.w3.org/2000/svg"><path d="m28.446 22.265-3.104-2.07-2.76-1.84a1.222 1.222 0 0 0-1.641.267l-1.708 2.195a1.216 1.216 0 0 1-1.552.322c-1.159-.644-2.529-1.251-5.552-4.278-3.023-3.027-3.634-4.393-4.278-5.552a1.216 1.216 0 0 1 .322-1.552l2.195-1.708c.505-.393.62-1.108.267-1.64L8.852 3.733 6.726.544A1.222 1.222 0 0 0 5.08.174L2.628 1.645a2.996 2.996 0 0 0-1.36 1.76C.598 5.85.462 11.244 9.105 19.887c8.642 8.643 14.035 8.507 16.48 7.837.74-.211 1.37-.698 1.76-1.36l1.471-2.453a1.222 1.222 0 0 0-.37-1.645ZM16.92 4.345a8.216 8.216 0 0 1 8.206 8.207.483.483 0 0 0 .966 0 9.182 9.182 0 0 0-9.172-9.173.483.483 0 0 0 0 .966Z" fill="#55A630"/><path d="M16.92 7.24a5.316 5.316 0 0 1 5.311 5.311.483.483 0 1 0 .966 0 6.283 6.283 0 0 0-6.276-6.276.483.483 0 1 0 0 .966Z" fill="#55A630"/><path d="M16.92 10.138a2.417 2.417 0 0 1 2.413 2.414.483.483 0 0 0 .966 0 3.383 3.383 0 0 0-3.38-3.38.483.483 0 0 0 0 .966Z" fill="#55A630"/></svg></svg>