<svg width="41" height="28" viewBox="0 0 41 28" fill="none" xmlns="http://www.w3.org/2000/svg">
<g clip-path="url(#clip0_12284_3595)">
<path d="M40.2929 27.7586H0.706927C0.316548 27.7586 0 27.4344 0 27.0345V0.965624C0 0.565723 0.316548 0.241455 0.706927 0.241455H40.293C40.6834 0.241455 40.9999 0.565723 40.9999 0.965624V27.0345C40.9998 27.4344 40.6833 27.7586 40.2929 27.7586Z" fill="#41479B"/>
<path d="M40.9998 0.965624C40.9998 0.565723 40.6833 0.241455 40.2929 0.241455H37.1302L24.0343 9.03082V0.241455H16.9654V9.03082L3.86952 0.241455H0.706927C0.316548 0.241455 0 0.565723 0 0.965624V2.83847L11.2356 10.3793H0V17.6207H11.2356L0 25.1616V27.0345C0 27.4344 0.316548 27.7586 0.706927 27.7586H3.8696L16.9655 18.9693V27.7586H24.0345V18.9693L37.1304 27.7586H40.2931C40.6835 27.7586 41 27.4344 41 27.0345V25.1616L29.7644 17.6208H40.9998V10.3794H29.7642L40.9998 2.83847V0.965624Z" fill="#F5F5F5"/>
<path d="M40.9998 11.8277H22.6206V0.241455H18.3792V11.8277H0V16.1724H18.3792V27.7586H22.6206V16.1724H40.9998V11.8277Z" fill="#FF4B55"/>
<path d="M14.3293 17.6206L0.0195312 27.136C0.06958 27.4857 0.351053 27.7586 0.706359 27.7586H1.68003L16.926 17.6207L14.3293 17.6206Z" fill="#FF4B55"/>
<path d="M27.7379 17.6206H25.1411L40.365 27.7435C40.7198 27.7048 40.9998 27.408 40.9998 27.0343V26.4389L27.7379 17.6206Z" fill="#FF4B55"/>
<path d="M0 1.76494L12.9549 10.3793H15.5517L0.41184 0.312012C0.170005 0.427101 0 0.674424 0 0.965551V1.76494Z" fill="#FF4B55"/>
<path d="M26.6309 10.3793L40.975 0.841019C40.9155 0.502887 40.64 0.241455 40.2927 0.241455H39.28L24.0342 10.3793H26.6309Z" fill="#FF4B55"/>
</g>
<defs>
<clipPath id="clip0_12284_3595">
<rect width="41" height="28" fill="white"/>
</clipPath>
</defs>
</svg>
